<svg xmlns="http://www.w3.org/2000/svg" xmlns:xlink="http://www.w3.org/1999/xlink" width="454.36" height="110.796" viewBox="0 0 454.36 110.796">
  <defs>
    <linearGradient id="a" x1="-51.035" y1="67.309" x2="463.978" y2="-8.61" gradientUnits="userSpaceOnUse">
      <stop offset="0.002" stop-color="#8ac6bd"/>
      <stop offset="1" stop-color="#38786d"/>
    </linearGradient>
    <linearGradient id="b" x1="-46.698" y1="96.732" x2="468.316" y2="20.813" xlink:href="#a"/>
    <linearGradient id="c" x1="-43.956" y1="115.331" x2="471.057" y2="39.412" xlink:href="#a"/>
    <linearGradient id="d" x1="-44.09" y1="114.422" x2="470.923" y2="38.504" xlink:href="#a"/>
    <linearGradient id="e" x1="-45.078" y1="107.72" x2="469.935" y2="31.802" xlink:href="#a"/>
    <linearGradient id="f" x1="-52.306" y1="58.689" x2="462.708" y2="-17.229" xlink:href="#a"/>
    <linearGradient id="g" x1="-47.83" y1="89.05" x2="467.183" y2="13.132" xlink:href="#a"/>
    <linearGradient id="h" x1="-55.059" y1="40.011" x2="459.954" y2="-35.907" xlink:href="#a"/>
    <linearGradient id="i" x1="-37.629" y1="158.254" x2="477.385" y2="82.336" xlink:href="#a"/>
  </defs>
  <g>
    <g>
      <path d="M12.754,99.688V13.959H41.293a32.355,32.355,0,0,1,14.973,3.288,24.058,24.058,0,0,1,9.924,9.219,26.744,26.744,0,0,1,3.522,13.916A26.483,26.483,0,0,1,66.131,54.24a24.412,24.412,0,0,1-9.924,9.278,31.991,31.991,0,0,1-14.914,3.288H27.434V99.688Zm14.68-46.153H41.293A13.5,13.5,0,0,0,51.1,49.954a12.716,12.716,0,0,0,3.7-9.572q0-6.106-3.7-9.63a13.63,13.63,0,0,0-9.806-3.524H27.434Z" fill="url(#a)"/>
      <path d="M126.025,99.688V35.1h14.328v12.33h3.993l-3.993,3.407q0-7.984,4.64-12.449t12.741-4.463q9.514,0,15.209,6.343t5.695,17.029V99.688H163.959V58.819q0-5.871-3.054-9.042t-8.572-3.17a11.158,11.158,0,0,0-8.515,3.288q-3.114,3.288-3.113,9.394v40.4Z" fill="url(#b)"/>
      <path d="M281.134,100.863a31.545,31.545,0,0,1-14.387-3.113,22.89,22.89,0,0,1-9.571-8.808A25.7,25.7,0,0,1,253.771,75.5V59.289a25.633,25.633,0,0,1,3.405-13.505,23.029,23.029,0,0,1,9.571-8.749,31.545,31.545,0,0,1,14.387-3.113q12.211,0,19.5,6.284t7.633,17.088h-14.68A10.755,10.755,0,0,0,290,49.484q-3.232-2.758-8.867-2.761-5.874,0-9.278,3.231t-3.4,9.217V75.5q0,5.99,3.4,9.278t9.278,3.288q5.637,0,8.867-2.76a10.753,10.753,0,0,0,3.581-7.81h14.68q-.351,10.807-7.633,17.088T281.134,100.863Z" fill="url(#c)"/>
      <path d="M320.343,99.688V13.959h14.68V35.1l-.353,12.33h3.993l-3.993,3.407q0-7.984,4.64-12.449t12.742-4.463q9.513,0,15.209,6.343t5.695,17.029V99.688h-14.68V58.819q0-5.871-3.054-9.042t-8.572-3.17a11.158,11.158,0,0,0-8.515,3.288q-3.112,3.288-3.112,9.394v40.4Z" fill="url(#d)"/>
      <g>
        <path d="M225.543,35.1V86.3h19.964V99.688H188.9V86.3H211.45V35.1Z" fill="url(#e)"/>
        <circle cx="218.733" cy="18.735" r="8.802" fill="url(#f)"/>
      </g>
      <g>
        <path d="M96.14,35.1V86.3H116.1V99.688H59.5V86.3H82.046V35.1Z" fill="url(#g)"/>
        <circle cx="89.273" cy="18.735" r="8.802" fill="url(#h)"/>
      </g>
    </g>
    <rect x="384.987" y="85.043" width="56.619" height="13.481" fill="url(#i)"/>
  </g>
</svg>
